<svg width="36" height="36" viewBox="0 0 36 36" fill="none" xmlns="http://www.w3.org/2000/svg">
<path d="M30 3H12C10.35 3 9 4.35 9 6V24C9 25.65 10.35 27 12 27H30C31.65 27 33 25.65 33 24V6C33 4.35 31.65 3 30 3ZM25.5 10.5H22.5V18.555C22.5 20.46 21.15 22.215 19.26 22.455C16.725 22.8 14.595 20.58 15.06 18.03C15.36 16.38 16.83 15.105 18.51 15C19.455 14.94 20.31 15.24 21 15.765V9C21 8.175 21.675 7.5 22.5 7.5H25.5C26.325 7.5 27 8.175 27 9C27 9.825 26.325 10.5 25.5 10.5ZM4.5 9C3.675 9 3 9.675 3 10.5V30C3 31.65 4.35 33 6 33H25.5C26.325 33 27 32.325 27 31.5C27 30.675 26.325 30 25.5 30H7.5C6.675 30 6 29.325 6 28.5V10.5C6 9.675 5.325 9 4.5 9Z" fill="#E1DDE7"/>
</svg>
